<?xml version="1.0" encoding="UTF-8"?>
<svg width="604px" height="159px" viewBox="0 0 604 159" version="1.1" xmlns="http://www.w3.org/2000/svg" xmlns:xlink="http://www.w3.org/1999/xlink">
    <!-- Generator: Sketch 61.2 (89653) - https://sketch.com -->
    <title>logo_art_ai_variant_small</title>
    <desc>Created with Sketch.</desc>
    <defs>
        <linearGradient x1="96.0533733%" y1="17.2334519%" x2="0%" y2="82.7665481%" id="linearGradient-1">
            <stop stop-color="#F2C94C" offset="0%"></stop>
            <stop stop-color="#F2994A" offset="100%"></stop>
        </linearGradient>
    </defs>
    <g id="logo_art_ai_variant_small" stroke="none" stroke-width="1" fill="none" fill-rule="evenodd">
        <g id="WordMark" transform="translate(236.000000, 22.000000)" fill="#393945" fill-rule="nonzero">
            <path d="M24.6696035,106.75 C35.9471366,106.75 42.4317181,102.645221 47.2246696,96.2757353 L47.2246696,105.334559 L64,105.334559 L64,56.7849265 C64,36.5441176 51.030837,29.75 34.5374449,29.75 C18.0440529,29.75 4.37004405,36.96875 2.96035242,54.2371324 L19.4537445,54.2371324 C20.2995595,46.8768382 24.6696035,42.6305147 33.5506608,42.6305147 C43.5594714,42.6305147 46.9427313,47.5845588 46.9427313,57.4926471 L46.9427313,61.3143382 L37.7797357,61.3143382 C16.6343612,61.3143382 0,67.5422794 0,84.8106618 C0,100.238971 11.1365639,106.75 24.6696035,106.75 Z M28.8309859,94.75 C20.3802817,94.75 17,90.7120253 17,84.585443 C17,75.6740506 25.3098592,72.75 38.2676056,72.75 L47,72.75 L47,79.9905063 C47,89.3196203 39.2535211,94.75 28.8309859,94.75 Z M101.04811,105.75 L101.04811,67.3319209 C101.04811,51.6539548 110.065292,46.8516949 125,46.710452 L125,30.75 C112.601375,30.8912429 105.697595,36.3997175 101.04811,45.7217514 L101.04811,31.8799435 L84,31.8799435 L84,105.75 L101.04811,105.75 Z M165.36129,106.75 C170.612903,106.75 174.303226,105.906105 177,104.921561 L177,91.4192427 C174.587097,92.4037867 172.032258,92.8257342 168.625806,92.8257342 C163.232258,92.8257342 160.109677,89.872102 160.109677,83.4022411 L160.109677,44.7237249 L176.432258,44.7237249 L176.432258,31.9246522 L160.109677,31.9246522 L160.109677,15.75 L142.935484,15.75 L142.935484,31.9246522 L133,31.9246522 L133,44.7237249 L142.935484,44.7237249 L142.935484,84.9493818 C142.935484,98.8736476 150.6,106.75 165.36129,106.75 Z M221,72.75 L221,61.75 L191,61.75 L191,72.75 L221,72.75 Z M258.669604,106.75 C269.947137,106.75 276.431718,102.645221 281.22467,96.2757353 L281.22467,105.334559 L298,105.334559 L298,56.7849265 C298,36.5441176 285.030837,29.75 268.537445,29.75 C252.044053,29.75 238.370044,36.96875 236.960352,54.2371324 L253.453744,54.2371324 C254.299559,46.8768382 258.669604,42.6305147 267.550661,42.6305147 C277.559471,42.6305147 280.942731,47.5845588 280.942731,57.4926471 L280.942731,61.3143382 L271.779736,61.3143382 C250.634361,61.3143382 234,67.5422794 234,84.8106618 C234,100.238971 245.136564,106.75 258.669604,106.75 Z M262.830986,94.75 C254.380282,94.75 251,90.7120253 251,84.585443 C251,75.6740506 259.309859,72.75 272.267606,72.75 L281,72.75 L281,79.9905063 C281,89.3196203 273.253521,94.75 262.830986,94.75 Z M327,19.75 C332.555556,19.75 337,15.4334532 337,9.82194245 C337,4.06654676 332.555556,-0.25 327,-0.25 C321.444444,-0.25 317,4.06654676 317,9.82194245 C317,15.4334532 321.444444,19.75 327,19.75 Z M336,105.75 L336,31.75 L319,31.75 L319,105.75 L336,105.75 Z" id="art-ai"></path>
        </g>
        <g id="LOGO_SHAPE">
            <polygon id="Path-4" points="3.2260274 103.6195 94.1763534 88.585943 154.074716 158.970836"></polygon>
            <polygon id="Path-4" fill="#F2994A" fill-rule="evenodd" points="3.2260274 103.6195 94.1763534 88.585943 154.074716 158.970836"></polygon>
            <path d="M96.7808219,86.9752047 C96.7808219,86.9752047 107.491541,58.3414116 128.912979,1.0738255 L156.712385,157.897011 C116.75801,110.615807 96.7808219,86.9752047 96.7808219,86.9752047 Z" id="Path-5" fill="#F2C94C" fill-rule="evenodd"></path>
            <polygon id="Path-6" fill="url(#linearGradient-1)" fill-rule="evenodd" points="125.946672 -6.10399129e-14 93.8145154 85.9013792 0 101.956998"></polygon>
        </g>
    </g>
</svg>